HIERARCHY
ROOT Hips
{
	OFFSET 0.000000 88.474243 0.000000
	CHANNELS 6 Xposition Yposition Zposition Zrotation Yrotation Xrotation 
	JOINT Hips_Spine
	{
		OFFSET 0.000000 0.000000 0.000000
		CHANNELS 3 Zrotation Yrotation Xrotation
		JOINT Spine
		{
			OFFSET 0.005100 8.711998 -0.691000
			CHANNELS 3 Zrotation Yrotation Xrotation
			JOINT Spine1
			{
				OFFSET -0.009200 8.660301 -1.275000
				CHANNELS 3 Zrotation Yrotation Xrotation
				JOINT Spine2
				{
					OFFSET 0.006300 9.852501 -1.857000
					CHANNELS 3 Zrotation Yrotation Xrotation
					JOINT Spine2_Neck
					{
						OFFSET 0.000000 0.000000 0.000000
						CHANNELS 3 Zrotation Yrotation Xrotation
						JOINT Neck
						{
							OFFSET 0.016300 11.420799 -0.263300
							CHANNELS 3 Zrotation Yrotation Xrotation
							End Site #name: Head
							{
								OFFSET -0.019200 9.262405 2.362500
							}
						}
					}
					JOINT Spine2_LeftShoulder
					{
						OFFSET 0.000000 0.000000 0.000000
						CHANNELS 3 Zrotation Yrotation Xrotation
						JOINT LeftShoulder
						{
							OFFSET 5.616900 6.732201 -0.345700
							CHANNELS 3 Zrotation Yrotation Xrotation
							JOINT LeftArm
							{
								OFFSET 10.664888 -0.183372 -2.440700
								CHANNELS 3 Zrotation Yrotation Xrotation
								JOINT LeftForeArm
								{
									OFFSET 27.459126 0.000000 0.000000
									CHANNELS 3 Zrotation Yrotation Xrotation
									End Site #name: LeftHand
									{
										OFFSET 21.306858 0.000000 0.000000
									}
								}
							}
						}
					}
					JOINT Spine2_RightShoulder
					{
						OFFSET 0.000000 0.000000 0.000000
						CHANNELS 3 Zrotation Yrotation Xrotation
						JOINT RightShoulder
						{
							OFFSET -5.580300 6.737503 -0.344400
							CHANNELS 3 Zrotation Yrotation Xrotation
							JOINT RightArm
							{
								OFFSET -10.679335 -0.188484 -2.383900
								CHANNELS 3 Zrotation Yrotation Xrotation
								JOINT RightForeArm
								{
									OFFSET -27.503529 0.000000 0.000000
									CHANNELS 3 Zrotation Yrotation Xrotation
									End Site #name: RightHand
									{
										OFFSET -21.306808 0.000000 0.000000
									}
								}
							}
						}
					}
				}
			}
		}
	}
	JOINT Hips_LeftUpLeg
	{
		OFFSET 0.000000 0.000000 0.000000
		CHANNELS 3 Zrotation Yrotation Xrotation
		JOINT LeftUpLeg
		{
			OFFSET 6.857700 -6.739601 0.312100
			CHANNELS 3 Zrotation Yrotation Xrotation
			JOINT LeftLeg
			{
				OFFSET -0.367590 -34.731552 -4.572400
				CHANNELS 3 Zrotation Yrotation Xrotation
				End Site #name: LeftFoot
				{
					OFFSET 0.367590 -34.656704 -6.067400
				}
			}
		}
	}
	JOINT Hips_RightUpLeg
	{
		OFFSET 0.000000 0.000000 0.000000
		CHANNELS 3 Zrotation Yrotation Xrotation
		JOINT RightUpLeg
		{
			OFFSET -6.876100 -6.733299 0.301000
			CHANNELS 3 Zrotation Yrotation Xrotation
			JOINT RightLeg
			{
				OFFSET 0.347353 -34.795158 -4.515900
				CHANNELS 3 Zrotation Yrotation Xrotation
				End Site #name: RightFoot
				{
					OFFSET -0.347353 -34.589367 -6.070300
				}
			}
		}
	}
}
MOTION
Frames: 7
Frame Time: 0.041667
-0.002956 0.030467 -0.039980 1.029118 8.157815 -11.362620 -0.000000 -0.000000 0.000000 0.765193 -0.407057 -1.740124 -0.134347 -6.225358 12.356308 0.000000 0.000000 0.000000 -0.512456 -5.825603 16.109285 9.187517 -6.365995 7.839634 0.061371 -5.297185 15.175541 4.217400 -23.560872 1.364689 -12.831570 -16.104456 -46.817264 -128.443641 -74.342454 -170.660624 -0.456888 -6.281909 12.829976 15.969818 10.743085 3.451016 45.739842 26.048414 -23.309704 135.605063 84.232743 -150.384136 -0.000000 0.000000 -0.000000 -8.665041 -19.825108 -92.101151 22.159046 2.512410 78.800758 -0.000000 0.000000 0.000000 14.433613 0.026660 -102.854281 -29.234628 -3.045405 72.970648 
-0.025417 0.085977 -0.027793 1.949597 10.320392 -11.389092 0.000000 0.000000 0.000000 -1.682484 -2.395502 4.115640 -1.097362 -6.663475 12.433498 0.000000 0.000000 0.000000 -1.554870 -6.478190 13.104528 10.799370 -5.985521 7.041375 -1.216123 -6.692189 12.584882 -11.549434 -25.711560 6.082059 -40.122660 -33.275470 -13.573962 -40.443341 -80.034385 109.404034 -1.170907 -6.880999 11.557977 15.530523 15.270318 4.582468 32.039650 26.453763 -2.704227 81.588613 83.805508 167.409023 -0.000000 0.000000 -0.000000 -9.429542 -23.891932 -91.701423 24.950797 2.934478 77.785756 -0.000000 -0.000000 -0.000000 16.047575 2.118218 -108.314985 -31.390301 -2.157795 73.911715 
-0.070171 0.075969 -0.053860 2.108603 11.441191 -11.435023 -0.000000 0.000000 0.000000 -1.802597 -2.722704 5.051989 -1.413830 -6.942205 11.956097 0.000000 0.000000 0.000000 -1.562823 -6.870849 11.828616 11.382674 -6.795363 7.430299 -1.552184 -6.613106 11.277857 -12.631979 -22.933828 5.867578 -42.101830 -30.167175 -16.000214 -10.964985 -73.548364 82.010986 -1.585918 -7.211853 10.191010 14.865729 19.871926 5.425291 34.895846 17.722764 4.805649 139.440337 83.132994 -134.685955 -0.000000 0.000000 -0.000000 -10.554571 -24.405432 -91.123346 24.847681 3.097594 77.506579 -0.000000 -0.000000 -0.000000 15.999475 1.918868 -109.298614 -31.652332 -2.281621 73.969804 
-0.122306 0.065003 -0.084482 2.287757 11.843713 -11.235727 -0.000000 0.000000 0.000000 -1.760819 -2.837161 4.358645 -1.649568 -6.926488 11.667697 0.000000 0.000000 0.000000 -1.779944 -6.606738 11.296033 12.266564 -7.058482 6.228593 -1.524644 -6.325674 10.894027 -12.707513 -22.605061 5.680026 -39.586178 -31.689592 -16.314272 -5.492402 -71.154857 76.322617 -1.849051 -6.711088 10.159060 15.461458 19.842589 5.360589 34.439419 14.006438 3.037376 173.347476 76.731034 -105.720460 -0.000000 0.000000 -0.000000 -10.924370 -24.661458 -91.058829 24.741359 3.259780 77.292191 -0.000000 -0.000000 -0.000000 16.059786 1.391113 -109.580275 -30.656711 -2.188839 73.816205 
-0.158184 0.060362 -0.108197 2.341666 11.962999 -11.213861 -0.000000 0.000000 0.000000 -1.605275 -2.818851 4.398684 -1.721118 -6.841625 11.637306 0.000000 0.000000 0.000000 -1.995093 -6.466651 11.504512 13.437140 -7.441418 4.966702 -1.665210 -6.297485 10.952117 -11.850302 -22.256478 5.427522 -41.259412 -34.228315 -12.456753 0.269298 -71.110014 72.033850 -1.949804 -6.514096 10.561061 16.356193 18.342605 5.254636 35.740993 10.096127 0.384346 176.270248 69.266774 -108.291709 -0.000000 0.000000 -0.000000 -10.940868 -24.715099 -91.034776 24.758511 3.446384 77.109131 -0.000000 0.000000 -0.000000 15.990912 1.075517 -109.610870 -30.176539 -2.331213 73.789976 
-0.180162 0.059326 -0.123339 2.308684 11.911087 -11.217912 -0.000000 0.000000 0.000000 -1.517808 -2.782239 4.449759 -1.621871 -6.767550 11.566038 0.000000 0.000000 0.000000 -1.977736 -6.383818 11.666253 13.718919 -7.686071 4.280401 -1.646251 -6.300587 10.995784 -11.193796 -22.022006 5.152914 -42.871092 -34.432073 -11.033481 3.569806 -72.736459 70.294968 -1.884035 -6.480954 10.676372 16.631871 17.273788 5.143919 37.274703 7.713502 -2.023834 174.831344 64.452624 -113.461183 -0.000000 0.000000 -0.000000 -10.834702 -24.667742 -90.914943 24.715881 3.604572 76.941345 -0.000000 0.000000 -0.000000 15.956749 0.994331 -109.572094 -29.775910 -2.417881 73.771174 
-0.194186 0.058854 -0.134355 2.248491 11.857371 -11.250890 -0.000000 0.000000 0.000000 -1.438744 -2.737881 4.452863 -1.468684 -6.690973 11.605360 0.000000 0.000000 0.000000 -1.844037 -6.284619 11.701051 13.697790 -7.798421 4.148048 -1.541127 -6.233893 11.096720 -10.850578 -21.808088 4.967596 -41.902143 -35.114646 -12.525655 4.181633 -74.577100 70.108354 -1.729369 -6.428069 10.703535 16.647417 16.779933 5.073572 36.686155 7.788260 -3.864679 174.507941 63.298434 -115.692432 -0.000000 0.000000 -0.000000 -10.728904 -24.602313 -90.834829 24.689806 3.704057 76.894376 -0.000000 0.000000 -0.000000 15.985924 1.031184 -109.538407 -29.716541 -2.470191 73.727996 
